<svg height="511pt" viewBox="-77 0 511 511.99987" width="511pt" xmlns="http://www.w3.org/2000/svg"><path d="m221.820312 367.992188c0 13.078124-7.761718 23.675781-17.335937 23.675781h-50.777344c-9.578125 0-17.339843-10.597657-17.339843-23.675781v-87.949219c0-13.078125 7.765624-23.675781 17.339843-23.675781h50.777344c9.574219 0 17.335937 10.597656 17.335937 23.675781zm0 0" fill="#ffd0c6"/><path d="m356.710938 476.5625-23.496094-98.429688c-7.375-24.316406-32.164063-55.074218-71.839844-55.074218h-39.539062l-.058594.089844c-20.347656 30.386718-65.125 30.335937-85.40625-.089844h-39.738282c-39.675781 0-61.695312 26.851562-71.839843 55.074218l-23.496094 98.429688c-4.320313 18.085938 9.496094 35.4375 28.214844 35.4375h298.984375c18.71875 0 32.53125-17.351562 28.214844-35.4375zm0 0" fill="#88dbc1"/><path d="m356.710938 476.5625-23.496094-98.429688c-7.375-24.316406-32.167969-55.074218-71.84375-55.074218h-39.535156l-.019532.027344c38.933594.648437 63.285156 30.992187 70.582032 55.046874l23.496093 98.425782c4.320313 18.089844-9.496093 35.441406-28.214843 35.441406h40.8125c18.722656 0 32.535156-17.351562 28.21875-35.4375zm0 0" fill="#60c2a3"/><path d="m240.894531 41.585938c-19.34375-2.546876-40.730469-54.992188-71.941406-38.320313-21.492187 11.480469-14.109375 38.003906-51.058594 37.824219-87.054687-.421875-33.785156 131.386718-33.785156 131.386718h192.367187s23.039063-123.175781-35.582031-130.890624zm0 0" fill="#7f8194"/><path d="m240.894531 41.585938c-19.34375-2.546876-40.730469-54.992188-71.941406-38.320313-6.644531 3.550781-10.53125 8.539063-13.820313 13.734375 10.921876 10.953125 20.550782 23.375 29.722657 24.585938 58.621093 7.714843 35.582031 130.890624 35.582031 130.890624h56.039062s23.039063-123.175781-35.582031-130.890624zm0 0" fill="#6e7081"/><path d="m280.601562 155.007812c-1.289062-.128906-2.566406.058594-3.820312.523438-1.097656-13.5-3.417969-26.347656-6.941406-38.222656-5.59375 2.324218-28.945313 22.628906-96.507813 22.628906-63.234375 0-78.285156-20.878906-85.015625-23.140625-3.605468 12.019531-5.976562 25.039063-7.09375 38.734375-1.25-.464844-2.53125-.652344-3.816406-.523438-8.425781.859376-13.886719 14.96875-12.195312 31.515626 1.691406 16.550781 9.898437 29.265624 18.324218 28.410156.234375-.023438.460938-.0625.691406-.105469 10.363282 53.296875 42.179688 91.863281 94.777344 91.863281 52.59375 0 84.410156-38.566406 94.777344-91.863281.226562.042969.457031.082031.691406.105469 8.421875.855468 16.628906-11.859375 18.324219-28.410156 1.691406-16.546876-3.773437-30.660157-12.195313-31.515626zm0 0" fill="#fee2d8"/><path d="m280.601562 155.007812c-1.289062-.128906-2.566406.058594-3.820312.523438-1.097656-13.5-3.417969-26.347656-6.941406-38.222656-3.628906 1.507812-14.746094 10.585937-40.566406 16.777344 26.78125 24.507812 26.347656 143.820312-72.574219 170.0625 6.964843 1.664062 14.398437 2.539062 22.304687 2.539062 52.59375 0 84.410156-38.5625 94.773438-91.859375.230468.042969.460937.082031.695312.105469 8.421875.855468 16.628906-11.859375 18.324219-28.410156 1.691406-16.546876-3.773437-30.660157-12.195313-31.515626zm0 0" fill="#ffd0c6"/></svg>